<svg viewBox="0 0 24 24" fill="none" xmlns="http://www.w3.org/2000/svg" id="Github--Streamline-Iconoir" height="24" width="24">
  <desc>
    Github Streamline Icon: https://streamlinehq.com
  </desc>
  <path d="M16.6435 22.9406v-3.1358c0.041 -0.5209 -0.0294 -1.0447 -0.2065 -1.5364 -0.1771 -0.4917 -0.4568 -0.9401 -0.8205 -1.3152 3.4307 -0.3825 7.0363 -1.6826 7.0363 -7.6482 -0.0004 -1.5254 -0.5871 -2.9924 -1.6389 -4.0972 0.498 -1.3346 0.4628 -2.8098 -0.0984 -4.1191 0 0 -1.2892 -0.3824 -4.272 1.6171 -2.5042 -0.6787 -5.1439 -0.6787 -7.6481 0C6.0126 0.7063 4.7233 1.0887 4.7233 1.0887c-0.5612 1.3093 -0.5964 2.7845 -0.0983 4.1191 -1.0597 1.113 -1.6471 2.5932 -1.6389 4.13 0 5.9218 3.6056 7.222 7.0363 7.6481 -0.3595 0.3715 -0.6367 0.8145 -0.8136 1.3001 -0.177 0.4857 -0.2497 1.0032 -0.2134 1.5188v3.1358" stroke="currentColor" stroke-linecap="round" stroke-linejoin="round" stroke-width="1.5"></path>
  <path d="M8.9954 20.7553c-3.2778 1.0633 -6.0093 0 -7.6482 -3.2778" stroke="currentColor" stroke-linecap="round" stroke-linejoin="round" stroke-width="2"></path>
</svg>
